<svg version="1.1" id="Layer_1" xmlns="http://www.w3.org/2000/svg" xmlns:xlink="http://www.w3.org/1999/xlink" x="0px" y="0px"
	 width="100%" viewBox="0 0 1024 1024" enable-background="new 0 0 1024 1024" xml:space="preserve">
<path fill="#000000" opacity="1.000000" stroke="none" 
	d="
M516.671021,536.165649 
	C518.363953,521.974976 516.807861,508.061371 518.838379,494.432526 
	C520.100586,485.960022 518.180664,477.655121 519.288940,469.143066 
	C520.243225,461.813324 517.122253,454.848907 509.115814,451.546265 
	C499.734650,447.676636 490.707489,443.193665 482.869873,436.515594 
	C466.329132,422.421967 456.902191,404.635040 453.519135,383.207703 
	C450.998108,367.240234 451.246735,351.425659 454.791718,335.786194 
	C457.317535,324.643127 461.081207,313.888062 466.393494,303.561707 
	C471.111786,294.390076 475.742462,285.301331 482.234497,277.254364 
	C494.630280,261.889404 509.704254,250.454651 529.956238,249.033997 
	C541.467102,248.226547 552.102539,253.006668 561.263611,260.117035 
	C584.459045,278.120209 596.319336,303.120789 604.366699,330.470184 
	C607.909912,342.512207 609.136414,354.956024 609.132568,367.283661 
	C609.124084,394.496338 600.552979,418.617920 579.292847,436.805939 
	C572.098328,442.960815 563.472290,447.088531 554.684326,450.762451 
	C544.372070,455.073608 540.371216,462.730408 542.185486,473.712372 
	C542.347107,474.691010 542.385315,475.708313 542.336914,476.700623 
	C541.605774,491.686554 543.002197,506.636993 543.585083,521.574524 
	C544.180359,536.828796 545.074341,552.070862 545.500793,567.348083 
	C546.000366,585.244690 547.858093,603.085144 548.457092,621.002869 
	C549.044250,638.567932 550.312378,656.124451 551.555054,673.652039 
	C553.129761,695.862244 554.758911,718.059875 554.247864,740.313477 
	C553.641113,766.734863 547.934204,792.002319 534.926331,815.299133 
	C533.740723,817.422546 532.719543,819.891357 529.363098,820.030334 
	C521.926819,808.939697 517.739746,796.380615 513.658630,783.732849 
	C505.983826,759.947754 507.308350,735.412354 507.893097,711.049988 
	C508.178986,699.140808 508.824890,687.179810 509.646393,675.259827 
	C511.000977,655.605713 512.332397,635.949707 513.565002,616.287720 
	C513.991028,609.491638 514.231995,602.653625 514.395081,595.877258 
	C514.671082,584.408569 515.582520,572.967346 515.868286,561.499146 
	C516.074280,553.233948 516.578491,544.939880 516.671021,536.165649 
M513.577332,269.386292 
	C499.839478,275.632874 490.098175,286.473175 482.717346,298.952209 
	C469.889893,320.640076 462.796356,344.205322 464.372284,369.771332 
	C465.266571,384.278992 469.295227,397.944031 477.975342,409.700836 
	C486.620605,421.410431 497.996246,429.867340 512.028992,434.256561 
	C516.368225,435.613770 520.932190,436.517487 525.918030,435.231201 
	C525.497681,434.241760 524.707764,433.900757 524.015930,433.418915 
	C512.805847,425.610779 505.049835,414.860596 499.065887,402.886414 
	C488.240753,381.224823 484.945679,358.288177 487.480835,334.181671 
	C489.890839,311.265228 495.342682,289.897919 512.265259,272.959656 
	C513.041626,272.182587 514.864685,271.284546 513.577332,269.386292 
z"/>
<path fill="#000000" opacity="1.000000" stroke="none" 
	d="
M711.867065,534.923462 
	C688.915344,549.855286 666.493225,564.945435 643.297180,578.827759 
	C631.216980,586.057495 631.228821,586.066040 637.458862,598.614685 
	C647.999146,619.845032 658.756409,640.971375 669.002747,662.342712 
	C678.591797,682.343262 687.637817,702.604248 696.919128,722.752319 
	C700.305786,730.104126 704.533081,737.068054 707.524597,745.731384 
	C703.007568,743.339905 699.112732,741.423828 695.356750,739.265991 
	C669.032349,724.142151 642.668762,709.084473 616.456970,693.767273 
	C600.552612,684.473267 584.884827,674.773438 569.148254,665.194397 
	C567.518188,664.202087 565.425293,663.320374 565.616577,660.809998 
	C566.341248,651.302307 564.052429,641.896667 564.686646,632.396484 
	C564.750183,631.444946 565.000732,630.505981 565.321167,628.657654 
	C590.885193,643.348145 615.152954,659.157898 640.438660,673.786560 
	C629.021545,649.964417 617.837708,626.200378 604.885620,602.759949 
	C596.708374,607.732422 588.323730,612.331177 580.506836,617.904236 
	C576.442871,620.801636 572.221069,623.479736 568.039429,626.209351 
	C565.396118,627.934814 563.471802,627.699158 563.614075,624.020569 
	C563.943359,615.510376 563.209106,607.048645 562.665771,598.577393 
	C562.500854,596.005798 563.326172,594.326294 565.686707,592.895264 
	C573.311523,588.272827 580.708679,583.276184 588.304260,578.603699 
	C590.658325,577.155518 590.497681,575.443542 589.536072,573.534851 
	C582.203491,558.981201 574.798767,544.463867 567.448120,529.919250 
	C565.688354,526.437317 562.204895,527.813660 559.107910,526.941467 
	C558.617004,521.276978 557.941589,515.558411 557.662720,509.820526 
	C557.129761,498.855591 558.516235,487.841797 556.899780,476.900024 
	C556.712097,475.630157 556.943542,474.275574 557.848083,473.691528 
	C561.685547,471.213654 564.316162,466.953491 569.279663,465.764893 
	C572.403015,468.932373 573.720886,473.121002 575.785889,476.771301 
	C579.135254,482.691925 581.960083,488.938782 584.604492,495.217194 
	C586.077087,498.713257 588.247620,499.775665 591.870117,499.753174 
	C612.863464,499.623016 633.857910,499.678619 654.851990,499.672699 
	C685.843628,499.664001 716.835205,499.656128 747.826843,499.648376 
	C752.771851,499.647156 757.731873,499.428619 763.270020,500.845795 
	C745.985779,512.309021 729.079773,523.521423 711.867065,534.923462 
M661.079224,527.368530 
	C641.769165,527.216309 622.463013,527.212769 602.207336,527.630066 
	C606.649841,540.143372 613.098938,549.910583 617.919922,560.828064 
	C635.441528,549.772156 652.184570,539.207581 668.927551,528.643005 
	C668.747253,528.220093 668.566956,527.797180 668.386597,527.374268 
	C666.241211,527.374268 664.095764,527.374268 661.079224,527.368530 
z"/>
<path fill="#000000" opacity="1.000000" stroke="none" 
	d="
M496.327637,650.940186 
	C496.325348,652.755920 496.347595,654.089600 496.317322,655.421997 
	C496.207642,660.252258 494.927185,664.002075 490.223114,666.865479 
	C468.353241,680.177673 446.509308,693.514893 424.213593,706.119568 
	C402.691711,718.286804 381.427216,730.909302 360.047974,743.328857 
	C358.657074,744.136841 357.251465,744.919495 355.162567,746.105896 
	C357.146454,738.929199 360.173401,733.037476 362.897552,727.078186 
	C378.107269,693.805847 393.558960,660.646057 410.343506,628.126709 
	C416.514740,616.170105 422.416809,604.068848 428.853912,592.258301 
	C431.083527,588.167480 430.158569,586.141418 426.592468,583.857666 
	C408.416901,572.217773 390.064850,560.823364 372.297180,548.584290 
	C350.067444,533.271606 327.260529,518.741089 306.002686,501.643341 
	C309.145935,499.598267 312.401001,499.626038 315.674957,499.626678 
	C366.995148,499.637115 418.315369,499.636658 469.635559,499.626678 
	C476.745544,499.625305 477.291687,498.956604 479.987701,492.118958 
	C483.033447,484.394257 486.543488,476.853577 489.789307,469.206451 
	C491.390411,465.434235 493.274628,465.528809 496.686127,467.543976 
	C502.721191,471.108795 504.581116,475.978638 504.450104,482.747284 
	C504.183197,496.536621 503.293579,510.275208 502.319885,524.018799 
	C502.188263,525.876709 501.784210,527.323547 499.527924,527.309875 
	C496.065033,527.288940 494.748230,529.810364 493.430176,532.402039 
	C486.496796,546.035095 479.605377,559.690369 472.526611,573.247681 
	C470.988281,576.193970 472.532104,577.764954 474.461609,579.059387 
	C480.807068,583.316284 487.118927,587.672913 493.777740,591.393372 
	C497.385681,593.409180 498.581604,595.756287 498.394318,599.698486 
	C497.590698,616.612732 496.997803,633.536926 496.327637,650.940186 
M442.110565,662.461731 
	C459.750244,651.008362 478.158997,640.713562 496.316925,628.192566 
	C482.433014,619.392517 470.004333,611.514893 457.068848,603.315979 
	C444.797638,627.489868 432.809204,651.106628 420.820770,674.723389 
	C421.144165,674.922485 421.467529,675.121582 421.790924,675.320679 
	C428.352325,671.159302 434.913696,666.997864 442.110565,662.461731 
M450.432526,527.347168 
	C431.699097,527.532593 412.942932,526.766113 394.213684,528.201355 
	C410.622162,539.861938 427.358582,550.446472 444.935181,560.765015 
	C450.432739,549.508972 456.474762,539.163757 461.187927,527.363342 
	C457.353760,527.363342 454.377930,527.363342 450.432526,527.347168 
z"/>
<path fill="#000000" opacity="1.000000" stroke="none" 
	d="
M785.533813,634.344116 
	C782.095154,654.398499 775.333801,672.937439 767.132935,690.977295 
	C758.648376,709.641052 746.961060,726.367920 735.020081,742.908630 
	C733.005005,745.699951 730.459961,748.108704 727.651428,751.265564 
	C723.778870,744.306885 720.071350,737.740479 716.465942,731.118469 
	C715.034729,728.489807 714.326050,725.307556 712.429932,723.122131 
	C706.578796,716.378113 709.300842,711.039612 713.830261,704.929016 
	C734.215210,677.427856 745.752930,646.345032 750.786560,612.591125 
	C753.058960,597.353577 753.149719,582.069519 752.423096,566.840271 
	C751.921570,556.328430 750.143677,545.765564 747.321289,535.524719 
	C746.553711,532.739868 747.284180,531.207458 749.436462,529.639709 
	C758.746582,522.858154 768.366760,516.483765 776.954895,508.743896 
	C779.101807,506.808990 780.600037,507.701355 781.286438,510.239807 
	C784.271973,521.280396 786.431885,532.494019 788.352478,543.762878 
	C791.250183,560.765259 790.141846,577.911011 790.331970,595.010925 
	C790.478394,608.187195 788.161499,621.070496 785.533813,634.344116 
z"/>
<path fill="#000000" opacity="1.000000" stroke="none" 
	d="
M292.993774,678.807251 
	C266.642456,617.203125 272.225433,547.233093 287.249786,507.483978 
	C290.794830,508.125977 293.287842,510.649902 295.979309,512.674866 
	C303.258026,518.151001 310.400970,523.807251 317.617371,529.366638 
	C319.524567,530.835938 320.179779,532.317200 319.330475,534.908081 
	C315.536987,546.480103 314.154755,558.459595 313.162994,570.578125 
	C312.605316,577.392395 312.031006,584.177246 312.397034,590.968140 
	C313.789703,616.809448 318.553711,641.866333 329.335876,665.651001 
	C336.356750,681.138428 343.966003,696.219177 354.006134,709.995544 
	C354.984589,711.338135 355.834595,713.022644 355.061127,714.688599 
	C349.674835,726.290039 343.459778,737.434265 336.284027,748.030090 
	C336.043121,748.385925 335.424072,748.485596 334.363220,749.010437 
	C317.331085,727.711182 303.803619,704.301941 292.993774,678.807251 
z"/>
<path fill="#000000" opacity="1.000000" stroke="none" 
	d="
M721.171509,409.805420 
	C742.481506,432.587585 759.636841,457.598450 771.577209,487.268494 
	C757.126221,487.268494 743.998352,487.276093 730.870483,487.260834 
	C728.753113,487.258392 728.320801,485.454559 727.542603,484.012146 
	C718.342773,466.960327 707.409607,450.985199 693.751221,437.345612 
	C675.852295,419.471222 656.313660,403.450439 633.307312,392.241730 
	C630.171936,390.714172 627.181030,388.887451 624.144897,387.161102 
	C623.440002,386.760284 622.823975,386.203125 621.712280,385.382050 
	C627.608459,375.522156 633.543030,365.860474 639.161621,356.018402 
	C640.575623,353.541443 641.953186,353.730682 643.958679,354.625000 
	C657.665771,360.737640 670.408447,368.532379 682.864624,376.839905 
	C696.887512,386.192352 709.000061,397.754578 721.171509,409.805420 
z"/>
<path fill="#000000" opacity="1.000000" stroke="none" 
	d="
M523.304321,841.234253 
	C496.224884,840.096985 470.292175,835.343140 445.348541,825.606995 
	C415.115143,813.806213 387.193481,797.979797 361.927704,777.598938 
	C357.245270,773.821838 352.415497,770.037231 348.340271,764.885620 
	C356.825195,758.023926 365.876556,752.886475 374.336945,746.916931 
	C375.008270,746.443298 375.852966,746.182373 376.447174,745.637390 
	C383.235352,739.410767 382.476776,740.445801 389.426239,746.527100 
	C403.634430,758.960388 418.949463,769.594055 435.578156,778.390747 
	C455.653137,789.010559 476.901184,796.217468 499.372314,799.702759 
	C501.731506,800.068604 503.089142,801.394470 504.236023,803.442749 
	C508.702148,811.419373 512.062744,819.954773 516.831177,827.794250 
	C518.484558,830.512390 520.794556,832.633667 522.347961,835.303894 
	C523.339539,837.008179 525.983093,838.601990 523.304321,841.234253 
z"/>
<path fill="#000000" opacity="1.000000" stroke="none" 
	d="
M709.582031,760.346375 
	C715.133362,764.775391 715.473938,765.164917 710.441040,769.565125 
	C696.954529,781.356262 682.874878,792.309143 667.339600,801.474060 
	C651.689270,810.706909 635.526550,818.719604 618.625061,825.224243 
	C601.714417,831.732483 584.195923,835.841980 566.242371,838.664368 
	C556.326965,840.223145 546.436401,839.603760 536.253235,841.128479 
	C536.922729,837.304504 539.308289,834.891846 541.193115,832.317688 
	C547.069153,824.292480 552.618652,816.088928 555.583862,806.492004 
	C556.915039,802.183594 559.529663,801.153320 563.872986,800.365112 
	C580.867249,797.281067 597.522034,792.875061 613.572693,786.185852 
	C632.609192,778.252136 649.681335,767.090454 666.293640,755.172729 
	C670.375183,752.244690 673.944153,748.419128 677.702393,744.970459 
	C680.367981,742.524475 682.396484,742.439026 685.129761,744.249390 
	C693.166077,749.572205 701.240417,754.837646 709.582031,760.346375 
z"/>
<path fill="#000000" opacity="1.000000" stroke="none" 
	d="
M353.662109,458.631958 
	C348.351898,466.887115 342.762451,474.542145 338.292145,482.910431 
	C337.357727,484.659668 336.310455,486.426819 333.846527,486.359039 
	C321.412842,486.017151 308.966370,488.511688 296.543518,486.186035 
	C296.081573,486.099579 295.659149,485.801819 294.546936,485.299042 
	C320.841461,425.849426 362.564575,381.501007 421.235443,352.750061 
	C425.951416,359.248260 429.108368,366.345154 433.002960,372.997345 
	C434.002441,374.704529 434.599152,376.642303 435.513367,378.405457 
	C439.445251,385.988312 439.572357,386.184021 431.810608,390.315765 
	C412.211609,400.748749 394.360046,413.647308 378.467438,429.049988 
	C370.282196,436.982880 362.898926,445.814026 356.347870,455.240967 
	C355.594543,456.324982 354.700714,457.311371 353.662109,458.631958 
z"/>
<path fill="#000000" opacity="1.000000" stroke="none" 
	d="
M442.424744,325.307434 
	C441.468994,329.391510 440.573395,333.072205 439.668915,336.789459 
	C422.107147,325.819641 404.639557,286.047668 414.791382,250.645721 
	C426.746185,208.956223 470.732422,184.494156 493.405914,186.577744 
	C481.452057,195.187347 471.401337,204.514832 468.315979,219.041092 
	C465.216034,233.635971 467.581299,246.732498 479.094055,257.786621 
	C461.268158,277.197968 449.130768,299.580505 442.424744,325.307434 
z"/>
<path fill="#000000" opacity="1.000000" stroke="none" 
	d="
M638.102722,317.019592 
	C633.493652,324.632446 629.164429,332.006561 621.460999,337.771515 
	C619.340698,327.611786 616.837769,318.422638 613.794312,309.388702 
	C607.714233,291.341034 598.181641,275.344391 585.071655,261.547058 
	C582.837402,259.195679 582.909607,257.531586 584.866455,255.258560 
	C589.735046,249.603348 592.624329,243.123688 593.840332,235.651260 
	C595.929993,222.809113 591.779236,211.912384 584.602722,201.684372 
	C580.392700,195.684280 574.780945,191.124802 569.191101,186.330460 
	C576.907837,185.881943 583.924011,187.992401 590.715210,190.915054 
	C604.308105,196.764862 615.782776,205.399689 626.087158,216.117294 
	C636.147949,226.581543 643.111633,238.594330 646.647705,252.341827 
	C652.408752,274.739716 649.993774,296.405548 638.102722,317.019592 
z"/>
</svg>