<svg version="1.1" id="Layer_1" xmlns="http://www.w3.org/2000/svg" xmlns:xlink="http://www.w3.org/1999/xlink" x="0px" y="0px"
	 width="100%" viewBox="0 0 688 688" enable-background="new 0 0 688 688" xml:space="preserve">
<path fill="#000000" opacity="1.000000" stroke="none" 
	d="
M366.688599,89.946808 
	C382.903748,97.224030 394.140076,109.344406 403.143524,123.777374 
	C408.197693,131.879456 412.084473,140.512604 415.856079,149.344543 
	C420.741577,160.784866 423.950043,172.392365 425.471313,184.545822 
	C427.615997,201.679321 428.095734,218.818268 422.519745,235.506210 
	C416.581573,253.278168 406.371765,267.854034 390.518707,278.366302 
	C384.382172,282.435455 377.758667,285.317749 371.137238,288.295715 
	C363.728973,291.627533 358.373474,298.969696 359.534180,306.728333 
	C360.802338,315.205322 359.863190,323.609283 360.239136,332.035309 
	C361.310974,356.058136 363.116882,380.036896 363.527100,404.105377 
	C363.837280,422.304047 365.883453,440.455902 366.459167,458.681641 
	C367.008698,476.078613 368.000854,493.481445 369.472565,510.824493 
	C371.370209,533.187256 372.834778,555.570923 372.220337,577.991272 
	C371.492950,604.532104 365.606750,629.890686 352.389923,653.237732 
	C351.329102,655.111694 350.065857,656.441040 347.653168,656.732605 
	C341.716003,649.693481 338.889862,641.005676 335.643829,632.552063 
	C330.388245,618.865173 326.589874,604.675293 326.020172,590.084473 
	C325.419281,574.693726 324.682709,559.224243 326.480743,543.796997 
	C327.344452,536.386230 326.763763,528.891235 327.454712,521.402039 
	C328.734039,507.535400 328.882355,493.567871 329.679504,479.652527 
	C330.837341,459.440887 332.251923,439.253845 332.862274,419.001373 
	C333.311981,404.079590 333.942688,389.130127 334.856842,374.232697 
	C335.830353,358.367554 335.028137,342.400299 337.504242,326.614990 
	C337.935333,323.866852 337.972046,320.980560 337.146301,318.189178 
	C336.375031,315.581909 336.496307,312.906769 336.992493,310.274872 
	C339.000122,299.625641 335.746857,292.475342 326.090179,288.103729 
	C316.677643,283.842651 307.789276,278.968567 299.744934,272.343811 
	C288.614136,263.177216 281.436981,251.450928 276.174683,238.372223 
	C270.950439,225.388184 269.351959,211.553162 269.891937,197.850479 
	C270.678558,177.889709 274.779236,158.642624 284.663544,140.644592 
	C291.031555,129.049301 296.810760,117.409462 306.231445,107.806015 
	C316.626007,97.209785 328.239502,89.884712 343.182678,86.927910 
	C351.738525,85.234978 358.769226,87.725510 366.688599,89.946808 
M322.253082,119.806328 
	C323.991791,114.230873 330.726257,112.374283 332.794037,106.081619 
	C325.646454,108.256546 320.902588,112.766106 316.132996,116.980904 
	C303.003906,128.582794 295.593414,143.880798 289.453186,159.876801 
	C283.407806,175.625778 281.561981,192.033798 282.413025,208.778381 
	C282.801178,216.416306 284.322083,224.088943 287.071533,231.031952 
	C292.915680,245.789795 303.068817,257.430756 316.840637,265.573578 
	C325.653198,270.784149 335.212433,273.565796 346.305237,273.313843 
	C341.999512,270.133270 337.747223,267.900726 334.692932,264.569702 
	C324.575470,253.535522 316.567963,241.170380 311.570770,226.846512 
	C305.188934,208.553787 303.907074,189.908905 305.529022,170.760559 
	C307.064941,152.628433 311.560211,135.616974 322.253082,119.806328 
z"/>
<path fill="#000000" opacity="1.000000" stroke="none" 
	d="
M468.178528,549.804199 
	C455.655029,542.520569 443.530640,535.270630 431.197540,528.395020 
	C416.856995,520.400330 402.970367,511.668732 388.936218,503.171600 
	C385.376923,501.016571 383.691101,498.765076 383.553894,494.204498 
	C382.974884,474.957764 381.825836,455.726471 380.725464,436.498657 
	C380.527893,433.046204 381.642212,431.188507 384.707703,429.414429 
	C392.258942,425.044464 399.472260,420.092773 406.853058,415.424957 
	C409.227997,413.922974 408.510620,412.069092 407.586792,410.218201 
	C402.841064,400.710388 398.091522,391.204102 393.267548,381.735901 
	C391.400970,378.072296 389.225861,374.564789 387.390533,370.886749 
	C385.583344,367.265076 384.170166,363.550293 378.891968,364.100433 
	C376.508759,364.348816 376.833038,362.039459 376.670563,360.427826 
	C375.299255,346.827545 376.584747,333.100220 375.357117,319.580261 
	C374.448273,309.570892 380.511627,306.610779 387.318726,302.499847 
	C392.176819,308.977905 394.667145,316.374207 398.143646,323.226868 
	C399.946899,326.781372 401.742065,330.352905 403.271790,334.028778 
	C404.360809,336.645569 406.441223,336.679718 408.618103,336.684631 
	C416.615906,336.702728 424.616028,336.546448 432.611115,336.688965 
	C442.497498,336.865265 452.408539,337.888519 462.256500,337.427063 
	C474.648010,336.846405 487.025696,336.673920 499.416351,336.661926 
	C522.671570,336.639374 545.926880,336.625061 569.181885,336.698914 
	C572.468567,336.709351 575.928711,336.364075 579.616943,338.751495 
	C572.307312,343.592072 565.459229,348.100067 558.638855,352.649628 
	C546.377502,360.828674 534.207031,369.146423 521.863770,377.199677 
	C503.067719,389.462891 484.251434,401.701630 465.216187,413.586243 
	C461.341797,416.005249 457.807770,419.025879 453.395172,420.743744 
	C450.507812,421.867737 449.534393,424.488281 451.224731,427.747711 
	C458.376587,441.538422 465.888550,455.172363 472.341339,469.287628 
	C479.532715,485.018524 488.161743,500.060059 494.901398,515.950989 
	C501.604858,531.756409 509.907654,546.803467 516.170959,562.815063 
	C518.620728,569.077698 522.758240,574.685608 525.118835,582.818481 
	C505.563995,571.487854 487.024689,560.745605 468.178528,549.804199 
M452.308746,508.115021 
	C454.158112,508.602264 455.272400,510.924896 458.836975,509.953613 
	C447.010803,486.315155 435.705322,462.756836 422.915894,439.677704 
	C409.475403,447.557617 396.387756,455.337769 383.455902,465.266998 
	C406.838043,479.812958 429.277802,493.772675 452.308746,508.115021 
M456.484985,384.828918 
	C466.595306,378.444580 477.075745,372.607361 486.437286,364.427887 
	C476.663696,363.409943 467.074860,362.732361 457.627899,363.600067 
	C448.131805,364.472229 438.680939,364.325867 429.215485,364.309692 
	C420.737152,364.295197 418.564362,364.889587 423.424164,372.719727 
	C423.851685,373.408569 423.927490,374.307434 424.306854,375.035797 
	C428.180115,382.472900 432.082428,389.894897 436.256531,397.854889 
	C443.158752,393.431488 449.526093,389.350891 456.484985,384.828918 
z"/>
<path fill="#000000" opacity="1.000000" stroke="none" 
	d="
M220.016724,405.175171 
	C187.797775,384.129303 156.355042,362.608307 125.743996,340.136261 
	C126.770203,336.875641 128.766693,336.753265 130.778763,336.750244 
	C148.770432,336.723145 166.780762,336.218231 184.746307,336.895721 
	C194.375305,337.258881 203.923065,338.156433 213.515884,336.708954 
	C218.198120,336.002380 222.750565,337.726807 227.396591,337.623932 
	C234.861725,337.458679 242.299210,335.916443 249.770874,336.712524 
	C259.143097,337.711090 268.539551,336.504364 277.931580,337.470001 
	C282.639587,337.954071 287.532867,337.129211 292.287842,336.490356 
	C295.485443,336.060730 296.589355,333.119629 297.689972,330.500092 
	C300.900635,322.858215 304.059326,315.194550 307.271729,307.553406 
	C308.042633,305.719543 308.991394,303.978516 310.839264,302.930206 
	C318.840057,306.171722 323.008759,311.222595 322.538208,320.628021 
	C321.817810,335.027130 321.423157,349.425568 319.647949,364.033539 
	C314.992096,363.688385 312.814880,366.216217 310.944031,370.068329 
	C304.485901,383.366211 297.767761,396.543243 290.856934,409.612061 
	C289.052551,413.024323 290.734619,414.690704 292.952728,416.206543 
	C299.505981,420.685089 306.111328,425.100739 312.870880,429.257050 
	C315.275787,430.735779 316.305725,432.270325 316.346039,435.149414 
	C316.623383,454.937408 314.241058,474.623718 314.179810,494.401154 
	C314.169464,497.741913 312.865448,500.630463 309.203125,502.828674 
	C293.724396,512.119263 278.589294,521.951233 262.820343,530.803284 
	C241.163757,542.960388 219.957199,555.917053 198.487167,568.409668 
	C190.375107,573.129761 182.042038,577.469482 173.471802,583.291565 
	C174.954727,575.889954 178.302856,570.216064 180.923126,564.354553 
	C187.355148,549.965942 194.580383,535.931091 200.974442,521.526672 
	C211.871292,496.978302 224.579788,473.335449 236.586029,449.344543 
	C240.055313,442.412231 243.621323,435.503296 247.300461,428.673340 
	C249.174332,425.194611 248.378555,422.741180 245.383362,421.183594 
	C236.578323,416.604645 229.037491,410.059174 220.016724,405.175171 
M312.766327,466.145203 
	C312.225372,461.837189 308.081696,461.381836 305.390900,459.582367 
	C295.536407,452.992249 285.464233,446.727570 275.016510,440.047852 
	C262.566742,464.585968 250.434204,488.498749 238.301682,512.411499 
	C244.506287,509.540527 249.787674,506.325775 255.004517,503.009521 
	C261.516144,498.870209 267.769684,494.274811 274.513306,490.564514 
	C281.343506,486.806641 287.442078,481.953308 294.441284,478.410858 
	C300.787445,475.198853 306.439301,470.615021 312.766327,466.145203 
M240.613663,384.819183 
	C248.008469,389.069580 255.403259,393.319977 263.101562,397.744812 
	C268.434814,386.799347 274.128052,376.738617 279.060730,364.668457 
	C256.462799,363.944336 234.870163,361.753082 213.299332,365.005524 
	C213.247543,365.442871 213.195770,365.880219 213.143997,366.317566 
	C222.073044,372.388916 231.002090,378.460266 240.613663,384.819183 
z"/>
<path fill="#000000" opacity="1.000000" stroke="none" 
	d="
M587.270325,523.018433 
	C576.592224,546.815674 562.470703,567.973999 545.885925,588.202759 
	C540.404358,579.431946 535.907959,570.818115 531.626099,562.084595 
	C531.333374,561.487549 531.202393,560.742249 530.762451,560.296692 
	C523.966736,553.414856 527.755737,547.417114 532.302063,541.495911 
	C543.514038,526.893188 551.304810,510.508209 557.822327,493.390045 
	C568.834045,464.467499 572.039001,434.427673 570.498840,403.818115 
	C569.969116,393.288177 568.060242,382.769073 565.460999,372.495178 
	C564.666321,369.353851 565.678406,368.042847 568.012512,366.444885 
	C577.068481,360.244873 585.799194,353.595978 594.273438,346.617950 
	C597.087219,344.300995 598.589417,344.997559 599.467224,348.456421 
	C602.359497,359.853333 604.553101,371.365906 606.489990,382.972198 
	C609.115051,398.702087 608.404114,414.479797 608.245300,430.235626 
	C607.992737,455.290039 603.113342,479.583496 594.933350,503.259705 
	C592.661133,509.836426 590.142517,516.288025 587.270325,523.018433 
z"/>
<path fill="#000000" opacity="1.000000" stroke="none" 
	d="
M160.152191,529.773804 
	C164.293839,535.769897 168.246155,541.455505 172.062271,547.231079 
	C173.174454,548.914368 173.625473,550.751343 172.593262,552.878174 
	C167.513718,563.344299 161.364380,573.210083 155.661591,583.325256 
	C155.014587,584.472839 153.974396,585.394592 152.203445,585.834595 
	C145.722000,578.132996 140.097290,569.577637 134.660202,560.990723 
	C126.309525,547.802307 119.027641,533.977234 112.759064,519.642517 
	C103.417847,498.281342 97.135376,476.131378 94.537453,452.902161 
	C93.205399,440.991699 92.454315,429.096527 92.659111,417.125153 
	C93.049965,394.278290 96.699089,371.918915 102.766357,349.933594 
	C104.401703,344.007751 106.237961,343.718903 110.990189,347.616669 
	C116.624901,352.238220 122.490562,356.585724 128.363983,360.905396 
	C130.969849,362.821930 132.724426,365.702850 136.001404,366.925690 
	C137.780701,367.589630 138.060333,369.358582 137.365280,371.549164 
	C133.689224,383.135040 131.780289,395.025421 131.234222,407.201385 
	C130.956207,413.399994 129.544662,419.392212 130.075302,425.829681 
	C130.972641,436.715424 132.085327,447.543457 133.785599,458.319122 
	C137.454239,481.569489 146.500534,502.891144 157.288025,523.585999 
	C158.282516,525.493896 159.042191,527.524231 160.152191,529.773804 
z"/>
<path fill="#000000" opacity="1.000000" stroke="none" 
	d="
M559.024353,324.363831 
	C550.417725,325.954865 545.616882,322.642365 541.948853,315.181610 
	C534.607361,300.248993 524.189026,287.284332 512.846802,275.223602 
	C500.912292,262.533112 487.309143,251.560684 473.143250,241.528198 
	C463.921204,234.997009 453.382477,230.326904 443.447968,224.797287 
	C442.309570,224.163651 441.263519,223.364090 439.852203,222.427490 
	C443.847778,216.614944 446.268066,210.181229 450.700073,204.780518 
	C453.238098,201.687729 454.531006,197.567917 456.354431,193.895554 
	C457.827026,190.929764 460.022400,190.547729 462.799408,191.970367 
	C483.831604,202.745071 504.153503,214.459763 521.890747,230.459869 
	C532.243958,239.799103 542.023376,249.658325 551.027710,260.161194 
	C558.784424,269.208771 565.517944,279.171265 571.753296,289.477295 
	C577.073914,298.271393 581.544861,307.441162 586.353455,316.467773 
	C589.696533,322.743378 588.885681,324.354584 582.003662,324.365204 
	C574.508850,324.376770 567.013977,324.365295 559.024353,324.363831 
z"/>
<path fill="#000000" opacity="1.000000" stroke="none" 
	d="
M216.560181,591.305664 
	C229.494827,602.045715 243.313705,611.010193 258.025513,618.089844 
	C274.709229,626.118286 292.251709,632.353943 310.646179,635.632263 
	C312.924500,636.038269 315.224060,636.326294 317.500153,636.743347 
	C319.358307,637.083801 320.457001,638.086670 321.570068,639.840088 
	C326.737396,647.980286 329.732330,657.235107 334.991180,665.328735 
	C336.452087,667.577087 338.525574,669.200134 339.917572,671.464661 
	C341.132111,673.440491 342.700378,675.185242 342.497925,678.205322 
	C301.941254,677.555115 264.450562,665.896729 229.140884,646.930176 
	C206.439392,634.736145 184.805618,620.788513 166.123184,601.653748 
	C175.549835,595.326294 184.128586,589.563477 192.717850,583.816406 
	C193.124100,583.544556 193.676590,583.485962 194.071365,583.203003 
	C200.825363,578.363525 203.415466,578.532471 208.806976,584.726074 
	C211.009247,587.255981 213.385391,589.440491 216.560181,591.305664 
z"/>
<path fill="#000000" opacity="1.000000" stroke="none" 
	d="
M444.818542,659.063904 
	C430.119934,664.886353 415.517029,669.732056 400.380463,672.830566 
	C385.307251,675.916016 370.109528,677.904114 354.377167,677.536743 
	C354.384583,675.635742 355.766602,674.216797 356.873260,672.684692 
	C361.879913,665.752991 367.186340,659.015747 370.791962,651.177063 
	C371.069885,650.572815 371.591705,649.997498 371.637329,649.381836 
	C372.439117,638.568970 380.712097,637.164612 388.867096,635.751648 
	C419.331177,630.473328 446.781128,618.183044 472.167389,600.729126 
	C480.840729,594.765930 489.031769,588.327637 496.666260,581.133240 
	C498.206390,579.681885 499.728882,579.327148 501.576721,580.539185 
	C510.271576,586.242065 519.018860,591.866028 527.664734,597.641907 
	C529.428772,598.820374 531.056396,600.344299 532.091431,603.016724 
	C506.906097,627.353821 477.175293,644.879150 444.818542,659.063904 
z"/>
<path fill="#000000" opacity="1.000000" stroke="none" 
	d="
M127.908035,291.949036 
	C134.580505,281.522369 141.393524,271.656281 148.769669,262.154724 
	C159.448639,248.398666 171.229446,235.870255 184.938431,224.997971 
	C192.921005,218.667175 200.905273,212.313980 209.387680,206.767807 
	C218.859009,200.575058 228.402527,194.278641 239.363373,190.183823 
	C244.132278,196.512787 247.117096,203.734253 251.124741,210.342957 
	C251.460373,210.896423 251.504761,211.618546 251.787369,212.213455 
	C253.461365,215.737350 257.634308,218.845093 256.493652,222.711670 
	C255.425079,226.333832 250.373337,226.800400 247.131027,228.622253 
	C235.249313,235.298615 224.056259,242.909393 213.305374,251.256927 
	C201.347809,260.541412 190.884567,271.271088 181.391342,283.018341 
	C172.236923,294.346283 163.758682,306.123993 156.890274,318.999054 
	C155.157486,322.247253 152.782104,323.580078 148.895767,323.468842 
	C138.478668,323.170563 128.047241,323.379059 117.621521,323.369019 
	C116.142395,323.367615 114.624947,323.484711 112.482056,322.179138 
	C117.364830,312.138214 122.078682,301.981720 127.908035,291.949036 
z"/>
<path fill="#000000" opacity="1.000000" stroke="none" 
	d="
M291.569580,88.418976 
	C296.484467,95.014809 296.842194,95.327835 291.650879,101.260162 
	C273.361359,122.160385 263.315796,146.829880 257.767273,173.663757 
	C241.195007,163.748825 222.824524,124.656868 232.533768,88.709740 
	C243.157593,49.376381 285.709656,22.001915 311.110931,23.345942 
	C288.389099,40.352818 276.588104,60.358276 291.569580,88.418976 
z"/>
<path fill="#000000" opacity="1.000000" stroke="none" 
	d="
M435.488403,157.461548 
	C431.950348,147.747070 429.358215,138.130447 424.630188,129.260300 
	C418.588715,117.925964 411.759857,107.226288 402.706970,98.041138 
	C402.023010,97.347160 401.507599,96.486992 400.634705,95.336029 
	C410.785156,84.402008 414.738220,71.555008 411.310547,56.996162 
	C407.969574,42.805397 399.249847,32.201061 387.178986,23.950647 
	C402.562103,17.744276 444.633118,47.087597 457.279572,70.767494 
	C479.988403,113.288811 460.545715,157.451187 439.480591,174.213058 
	C438.143463,168.607483 436.861023,163.231094 435.488403,157.461548 
z"/>
</svg>
